<svg id="_x33_0" enable-background="new 0 0 62.676 62" height="512" viewBox="0 0 62.676 62" width="512" xmlns="http://www.w3.org/2000/svg"><g><g><g><path d="m12.58 12.63-5.2 2.31c-1.45.65-2.38 2.08-2.38 3.66v4.4h-1c-.43 0-.84.09-1.21.26l-1.25-4.37c-.36-1.25-.54-2.55-.54-3.86 0-3.87 1.57-7.38 4.11-9.92s6.05-4.11 9.92-4.11h7.94c7.75 0 14.03 6.28 14.03 14.03 0 1.31-.18 2.61-.54 3.86l-1.25 4.37c-.37-.17-.78-.26-1.21-.26h-1v-4c0-2.21-1.79-4-4-4h-8.79c-2.76 0-5.42-.85-7.63-2.37z" fill="#b27946"/></g><g><path d="m33 46.7c0-2.28-1.24-4.39-3.24-5.5l-3.74-2.09h-.01c-1.23.72-2.58 1.26-4.01 1.57v.32h2c.55 0 1 .45 1 1v5h-2v6h2v3c0 .55-.45 1-1 1h-10c-.55 0-1-.45-1-1v-3-6-5c0-.55.45-1 1-1h2v-.32c-1.43-.31-2.78-.85-4.01-1.57h-.01l-3.45 1.93-.29.16c-2 1.11-3.24 3.22-3.24 5.5 0 1.74.7 3.32 1.84 4.46.83.83 1.89 1.42 3.07 1.68l-.91 8.16h20l-.91-8.16c1.18-.26 2.24-.85 3.07-1.68 1.14-1.14 1.84-2.72 1.84-4.46z" fill="#fcd770"/></g><g><path d="m57 29.58v10.42c0 .55-.45 1-1 1h-12c-.55 0-1-.45-1-1v-12c0-.55.45-1 1-1h12c.55 0 1 .45 1 1z" fill="#ff826e"/></g><g><path d="m57 9.58v10.42c0 .55-.45 1-1 1h-12c-.55 0-1-.45-1-1v-12c0-.55.45-1 1-1h12c.55 0 1 .45 1 1z" fill="#ff826e"/></g><g><path d="m25 53v3c0 .55-.45 1-1 1h-10c-.55 0-1-.45-1-1v-3-6-5c0-.55.45-1 1-1h2v1c0 .55.45 1 1 1h4c.55 0 1-.45 1-1v-1h2c.55 0 1 .45 1 1v5h-2-3c-.83 0-1.58.34-2.12.88s-.88 1.29-.88 2.12c0 1.66 1.34 3 3 3h3z" fill="#e6e9ed"/></g><g><path d="m22 40.68v.32 1c0 .55-.45 1-1 1h-4c-.55 0-1-.45-1-1v-1-.32-.68c0-.55.45-1 1-1h4c.55 0 1 .45 1 1z" fill="#b4dd7f"/></g><g><path d="m23 47v6h-3c-1.66 0-3-1.34-3-3 0-.83.34-1.58.88-2.12s1.29-.88 2.12-.88z" fill="#f0d0b4"/></g><g><path d="m35.21 23.26c.34.15.65.36.91.62.54.54.88 1.29.88 2.12 0 1.66-1.34 3-3 3h-1.14c.09-.65.14-1.32.14-2v-4h1c.43 0 .84.09 1.21.26z" fill="#f0d0b4"/></g><g><path d="m33 23v4c0 .68-.05 1.35-.14 2-.62 4.32-3.22 8.01-6.84 10.11h-.01c-1.23.72-2.58 1.26-4.01 1.57v-.68c0-.55-.45-1-1-1h-4c-.55 0-1 .45-1 1v.68c-1.43-.31-2.78-.85-4.01-1.57h-.01c-3.62-2.1-6.22-5.79-6.84-10.11-.09-.65-.14-1.32-.14-2v-4-4.4c0-1.58.93-3.01 2.38-3.66l5.2-2.31c2.21 1.52 4.87 2.37 7.63 2.37h8.79c2.21 0 4 1.79 4 4z" fill="#f0d0b4"/></g><g><path d="m5 23v4c0 .68.05 1.35.14 2h-1.14c-1.66 0-3-1.34-3-3 0-.83.34-1.58.88-2.12.26-.26.57-.47.91-.62.37-.17.78-.26 1.21-.26z" fill="#f0d0b4"/></g><g><path d="m23 31-.27 1.09c-.43 1.71-1.97 2.91-3.73 2.91s-3.3-1.2-3.73-2.91l-.27-1.09z" fill="#ff826e"/></g></g><g><path d="m14.302 32.332c.54 2.16 2.472 3.668 4.698 3.668s4.158-1.508 4.698-3.668l.583-2.332h-10.562zm7.413-.332c-.367 1.186-1.461 2-2.715 2s-2.348-.814-2.715-2z"/><path d="m16 24c0-2.206-1.794-4-4-4s-4 1.794-4 4h2c0-1.103.897-2 2-2s2 .897 2 2z"/><path d="m26 20c-2.206 0-4 1.794-4 4h2c0-1.103.897-2 2-2s2 .897 2 2h2c0-2.206-1.794-4-4-4z"/><path d="m44 22h12c1.103 0 2-.897 2-2v-9.977l4.676-4.286-1.352-1.475-3.425 3.14c-.256-.809-1.005-1.402-1.899-1.402h-12c-1.103 0-2 .897-2 2v12c0 1.103.897 2 2 2zm0-14h12v1.143l-5.97 5.473-2.323-2.323-1.414 1.414 3.677 3.677 6.03-5.528.001 8.144h-12.001z"/><path d="m61.324 24.263-3.425 3.14c-.256-.81-1.005-1.403-1.899-1.403h-12c-1.103 0-2 .897-2 2v12c0 1.103.897 2 2 2h12c1.103 0 2-.897 2-2v-9.977l4.676-4.286zm-5.323 15.737h-12.001v-12h12v1.143l-5.97 5.473-2.323-2.323-1.414 1.414 3.677 3.677 6.03-5.528z"/><path d="m42 46h6v2h-6z"/><path d="m50 46h8v2h-8z"/><path d="m42 50h16v2h-16z"/><path d="m42 54h2v2h-2z"/><path d="m46 54h2v2h-2z"/><path d="m50 54h2v2h-2z"/><path d="m38 15.034c0-8.29-6.744-15.034-15.034-15.034h-7.932c-8.29 0-15.034 6.744-15.034 15.034 0 1.397.195 2.787.579 4.13l1.04 3.641c-.977.73-1.619 1.884-1.619 3.195 0 2.206 1.794 4 4 4h.32c.753 3.632 2.829 6.852 5.754 9.037l-1.267.704-1.007-1.341-1.6 1.2.875 1.166c-1.911 1.358-3.075 3.562-3.075 5.938 0 3.154 2.015 5.838 4.821 6.855l-.938 8.441h22.234l-.938-8.441c2.807-1.017 4.821-3.701 4.821-6.855 0-2.647-1.438-5.091-3.752-6.377l-2.321-1.29c2.924-2.186 5.001-5.405 5.754-9.037h.319c2.206 0 4-1.794 4-4 0-1.311-.642-2.465-1.619-3.195l1.04-3.641c.384-1.343.579-2.732.579-4.13zm-34 12.966c-1.103 0-2-.897-2-2s.897-2 2-2v3c0 .336.021.668.044 1zm7.999 12.255c.203.108.411.206.62.305-.38.364-.619.874-.619 1.44v2.001l-1.983-2.644zm9.001 3.745c1.103 0 2-.897 2-2h1v4h-4c-2.206 0-4 1.794-4 4s1.794 4 4 4h4v2h-10v-14h1c0 1.103.897 2 2 2zm-4-2v-2h4l.001 2zm3 10c-1.103 0-2-.897-2-2s.897-2 2-2h2v4zm-14-5.296c0-1.742.863-3.355 2.275-4.338l2.754 3.672c-1.033.09-1.995.514-2.736 1.255l1.415 1.414c.455-.456 1.061-.707 1.706-.707h.586v4h-.705c-2.92 0-5.295-2.376-5.295-5.296zm21.883 13.296h-17.766l.669-6.026c.169.012.338.026.509.026h.705v2c0 1.103.897 2 2 2h10c1.103 0 2-.897 2-2v-2h.705c.172 0 .34-.014.509-.026zm1.393-17.925c1.68.934 2.724 2.707 2.724 4.629 0 2.92-2.375 5.296-5.295 5.296h-2.705v-4h2.586c.645 0 1.251.251 1.707.707l1.415-1.414c-.834-.834-1.942-1.293-3.122-1.293h-.586v-4c0-.566-.239-1.076-.619-1.44.208-.099.417-.197.62-.305zm2.724-15.075c0 5.68-3.765 10.723-9.101 12.404-.255-.81-1.005-1.404-1.899-1.404h-4c-.894 0-1.644.594-1.899 1.404-5.336-1.681-9.101-6.724-9.101-12.404v-8.4c0-1.185.699-2.261 1.782-2.741l4.73-2.102c2.274 1.431 4.923 2.243 7.699 2.243h8.789c1.654 0 3 1.346 3 3zm2 1h-.044c.023-.332.044-.664.044-1v-3c1.103 0 2 .897 2 2s-.897 2-2 2zm0-6v-3c0-2.757-2.243-5-5-5h-8.789c-4.18 0-8.06-2.076-10.379-5.555l-1.664 1.11c.711 1.066 1.555 2.01 2.492 2.835l-3.69 1.64c-1.804.802-2.97 2.595-2.97 4.57v3.4c-.177 0-.346.03-.516.052l-.982-3.437c-.333-1.165-.502-2.369-.502-3.581 0-7.187 5.847-13.034 13.034-13.034h7.932c7.187 0 13.034 5.847 13.034 13.034 0 1.212-.169 2.416-.501 3.581l-.982 3.437c-.171-.022-.34-.052-.517-.052z"/></g></g></svg>