<svg id="Layer_5" enable-background="new 0 0 64 64" height="512" viewBox="0 0 64 64" width="512" xmlns="http://www.w3.org/2000/svg"><g><g><g><path d="m56 33.46v24.54c0 2.21-1.79 4-4 4h-40c-2.21 0-4-1.79-4-4v-24.54c.59.34 1.27.54 2 .54h2l3.41 20.48.59 3.52h32l.59-3.52 3.41-20.48h2c.73 0 1.41-.2 2-.54z" fill="#a0d468"/></g><g><path d="m56 33.46c-.59.34-1.27.54-2 .54h-2-6-28-6-2c-.73 0-1.41-.2-2-.54-1.2-.69-2-1.98-2-3.46v-12c0-2.21 1.79-4 4-4h2v10c0 1.1.9 2 2 2h36c1.1 0 2-.9 2-2v-10h2c2.21 0 4 1.79 4 4v12c0 1.48-.8 2.77-2 3.46z" fill="#b4dd7f"/></g><g><path d="m52 34-3.41 20.48c-.52-.88-1.49-1.48-2.59-1.48-.38 0-.74.08-1.08.21-.37-1.83-1.98-3.21-3.92-3.21-2.21 0-4 1.79-4 4-.87 0-1.65.38-2.19.97-.43-1.15-1.52-1.97-2.81-1.97-1.04 0-1.96.54-2.5 1.35-.54-.81-1.46-1.35-2.5-1.35-.5 0-.96.13-1.37.34-.63-1.38-2.01-2.34-3.63-2.34-1.5 0-2.79.83-3.47 2.05-.18-.03-.35-.05-.53-.05-1.1 0-2.07.6-2.59 1.48l-3.41-20.48h6v12c0 1.1.9 2 2 2 .55 0 1.05-.22 1.41-.59.37-.36.59-.86.59-1.41v-6c0-1.1.9-2 2-2 .55 0 1.05.22 1.41.59.37.36.59.86.59 1.41v3c0 1.1.9 2 2 2 .55 0 1.05-.22 1.41-.59.37-.36.59-.86.59-1.41v-1c0-1.1.9-2 2-2 .55 0 1.05.22 1.41.59.37.36.59.86.59 1.41v4c0 1.1.9 2 2 2 .55 0 1.05-.22 1.41-.59.37-.36.59-.86.59-1.41v-6c0-1.1.9-2 2-2 .55 0 1.05.22 1.41.59.37.36.59.86.59 1.41v3c0 1.1.9 2 2 2 .55 0 1.05-.22 1.41-.59.37-.36.59-.86.59-1.41v-9z" fill="#e6e9ed"/></g><g><path d="m50 12h-36c-1.1 0-2 .9-2 2v10c0 1.1.9 2 2 2h36c1.1 0 2-.9 2-2v-10c0-1.1-.9-2-2-2z" fill="#e6e9ed"/></g><g><path d="m48.59 54.48-.59 3.52h-32l-.59-3.52c.52-.88 1.49-1.48 2.59-1.48.18 0 .35.02.53.05.68-1.22 1.97-2.05 3.47-2.05 1.62 0 3 .96 3.63 2.34.41-.21.87-.34 1.37-.34 1.04 0 1.96.54 2.5 1.35.54-.81 1.46-1.35 2.5-1.35 1.29 0 2.38.82 2.81 1.97.54-.59 1.32-.97 2.19-.97 0-2.21 1.79-4 4-4 1.94 0 3.55 1.38 3.92 3.21.34-.13.7-.21 1.08-.21 1.1 0 2.07.6 2.59 1.48z" fill="#dfb28b"/></g><g><path d="m46 34v9c0 .55-.22 1.05-.59 1.41-.36.37-.86.59-1.41.59-1.1 0-2-.9-2-2v-3c0-.55-.22-1.05-.59-1.41-.36-.37-.86-.59-1.41-.59-1.1 0-2 .9-2 2v6c0 .55-.22 1.05-.59 1.41-.36.37-.86.59-1.41.59-1.1 0-2-.9-2-2v-4c0-.55-.22-1.05-.59-1.41-.36-.37-.86-.59-1.41-.59-1.1 0-2 .9-2 2v1c0 .55-.22 1.05-.59 1.41-.36.37-.86.59-1.41.59-1.1 0-2-.9-2-2v-3c0-.55-.22-1.05-.59-1.41-.36-.37-.86-.59-1.41-.59-1.1 0-2 .9-2 2v6c0 .55-.22 1.05-.59 1.41-.36.37-.86.59-1.41.59-1.1 0-2-.9-2-2v-12z" fill="#f0d0b4"/></g><g><path d="m46 2v10 10h-28v-10-10z" fill="#f0d0b4"/></g></g><g><path d="m54 13h-1.184c-.414-1.161-1.514-2-2.816-2h-3v-10h-30v10h-3c-1.302 0-2.402.839-2.816 2h-1.184c-2.757 0-5 2.243-5 5v12c0 1.627.793 3.061 2 3.974v24.026c0 2.757 2.243 5 5 5h40c2.757 0 5-2.243 5-5v-24.026c1.207-.914 2-2.348 2-3.974v-12c0-2.757-2.243-5-5-5zm-35-10h26v18h-26zm-6 11c0-.552.449-1 1-1h3v10h30v-10h3c.551 0 1 .448 1 1v10c0 .552-.449 1-1 1h-36c-.551 0-1-.448-1-1zm42 44c0 1.654-1.346 3-3 3h-40c-1.654 0-3-1.346-3-3v-23.101c.323.066.658.101 1 .101h1.153l4 24h33.694l4-24h1.153c.342 0 .677-.035 1-.101zm-15-21c-1.654 0-3 1.346-3 3v6c0 .552-.449 1-1 1s-1-.448-1-1v-4c0-1.654-1.346-3-3-3s-3 1.346-3 3v1c0 .552-.449 1-1 1s-1-.448-1-1v-3c0-1.654-1.346-3-3-3s-3 1.346-3 3v6c0 .552-.449 1-1 1s-1-.448-1-1v-11h26v8c0 .552-.449 1-1 1s-1-.448-1-1v-3c0-1.654-1.346-3-3-3zm-20 12c1.654 0 3-1.346 3-3v-6c0-.552.449-1 1-1s1 .448 1 1v3c0 1.654 1.346 3 3 3s3-1.346 3-3v-1c0-.552.449-1 1-1s1 .448 1 1v4c0 1.654 1.346 3 3 3s3-1.346 3-3v-6c0-.552.449-1 1-1s1 .448 1 1v3c0 1.654 1.346 3 3 3s3-1.346 3-3v-8h3.819l-2.915 17.494c-.696-.378-1.499-.558-2.313-.471-.776-1.799-2.57-3.023-4.591-3.023-2.452 0-4.498 1.774-4.92 4.106-.344.081-.674.208-.983.378-.746-.919-1.879-1.484-3.097-1.484-.923 0-1.8.316-2.5.879-.937-.753-2.223-1.064-3.427-.765-.927-1.307-2.443-2.114-4.073-2.114-1.568 0-3.04.752-3.979 2-.007 0-.014 0-.021 0-.675 0-1.327.177-1.904.491l-2.915-17.491h3.819v11c0 1.654 1.346 3 3 3zm27.533 5.717-.38 2.283h-30.306l-.375-2.25c.459-.545 1.191-.83 1.88-.713l.698.124.348-.618c.535-.952 1.532-1.543 2.602-1.543 1.166 0 2.234.691 2.723 1.761l.437.954.933-.481c.958-.499 2.033-.152 2.575.665l.833 1.258.833-1.258c.372-.563.995-.899 1.666-.899.828 0 1.579.527 1.868 1.313l.564 1.529 1.108-1.195c.386-.418.905-.647 1.46-.647h1v-1c0-1.654 1.346-3 3-3 1.423 0 2.66 1.012 2.94 2.406l.234 1.167 1.109-.433c.846-.326 1.725-.049 2.25.577zm9.467-24.717c0 1.654-1.346 3-3 3h-.819-42.362-.819c-1.654 0-3-1.346-3-3v-12c0-1.654 1.346-3 3-3h1v9c0 1.654 1.346 3 3 3h36c1.654 0 3-1.346 3-3v-9h1c1.654 0 3 1.346 3 3z"/><path d="m21 5h2v2h-2z"/><path d="m25 5h18v2h-18z"/><path d="m21 9h22v2h-22z"/><path d="m21 13h22v2h-22z"/><path d="m41 17h2v2h-2z"/><path d="m21 17h18v2h-18z"/><path d="m47 29h2v2h-2z"/><path d="m51 29h2v2h-2z"/><path d="m43 29h2v2h-2z"/><path d="m11 29h2v2h-2z"/><path d="m15 29h2v2h-2z"/></g></g></svg>